<?xml version="1.0" standalone="no"?>
<!DOCTYPE svg PUBLIC "-//W3C//DTD SVG 20010904//EN"
 "http://www.w3.org/TR/2001/REC-SVG-20010904/DTD/svg10.dtd">
<svg version="1.0" xmlns="http://www.w3.org/2000/svg"
 width="819.000000pt" height="150.000000pt" viewBox="0 0 819.000000 150.000000"
 preserveAspectRatio="xMidYMid meet">
<metadata>
Created by potrace 1.16, written by Peter Selinger 2001-2019
</metadata>
<g transform="translate(0.000000,150.000000) scale(0.100000,-0.100000)"
fill="#000000" stroke="none">
<path d="M0 750 l0 -750 4095 0 4095 0 0 95 0 95 -3220 0 -3220 0 0 465 0 465
3220 0 3220 0 0 190 0 190 -4095 0 -4095 0 0 -750z m764 86 c91 -155 129 -206
142 -194 3 3 51 84 108 179 l102 174 57 3 58 3 -3 -118 c-3 -105 -5 -118 -20
-117 -10 1 -15 -3 -12 -8 8 -12 -27 -39 -44 -33 -8 3 -10 0 -6 -6 6 -11 -12
-29 -28 -29 -5 0 -8 16 -8 35 0 19 -3 35 -7 35 -5 0 -28 -34 -53 -75 -25 -41
-48 -75 -52 -75 -4 0 -10 -9 -13 -20 -3 -11 -11 -20 -17 -20 -6 0 -97 86 -202
190 -106 105 -199 190 -208 190 -21 0 -32 16 -24 35 4 11 23 15 70 15 l64 0
96 -164z m-288 117 c3 -10 10 -26 15 -35 5 -10 9 -30 9 -45 0 -22 27 -55 135
-163 75 -74 141 -144 147 -155 5 -11 -15 5 -46 35 l-56 54 0 -122 0 -122 -65
0 -65 0 0 181 c0 166 -1 180 -17 177 -31 -5 -93 31 -93 53 0 31 42 21 50 -11
4 -19 13 -26 35 -28 l30 -4 -32 34 c-22 23 -33 44 -35 73 -2 32 -7 40 -28 45
-33 8 -42 50 -10 50 11 0 23 -8 26 -17z"/>
<path d="M2950 909 c-59 -26 -96 -62 -128 -124 -23 -44 -26 -62 -27 -150 0
-110 20 -172 73 -228 125 -132 354 -81 406 91 7 20 4 22 -27 22 -29 0 -37 -5
-47 -31 -34 -80 -161 -115 -244 -67 -62 36 -96 110 -96 208 0 66 4 86 28 131
39 75 85 101 169 96 72 -3 107 -24 138 -80 17 -31 25 -37 53 -37 30 0 33 2 26
23 -41 135 -196 204 -324 146z"/>
<path d="M4158 921 c-77 -25 -140 -92 -168 -176 -8 -22 -13 -77 -13 -122 0
-72 4 -91 32 -148 39 -79 88 -118 167 -136 217 -49 373 182 288 425 -34 96
-115 156 -217 162 -34 2 -74 0 -89 -5z m151 -75 c152 -79 144 -376 -12 -435
-36 -14 -98 -14 -134 0 -66 25 -111 96 -120 192 -9 102 25 187 96 234 40 27
126 31 170 9z"/>
<path d="M1790 890 l0 -30 90 0 90 0 0 -260 0 -260 35 0 35 0 0 260 0 260 90
0 90 0 0 30 0 30 -215 0 -215 0 0 -30z"/>
<path d="M2330 630 l0 -290 180 0 180 0 0 30 0 30 -145 0 -145 0 0 100 0 100
135 0 135 0 0 30 0 30 -135 0 -135 0 0 100 0 100 140 0 140 0 0 30 0 30 -175
0 -175 0 0 -290z"/>
<path d="M3390 630 l0 -290 35 0 35 0 0 225 c0 124 3 225 8 225 4 0 77 -101
162 -225 148 -214 156 -224 188 -225 l32 0 0 290 0 290 -30 0 -30 0 0 -225 c0
-124 -3 -225 -7 -225 -5 0 -78 101 -163 225 l-155 224 -37 1 -38 0 0 -290z"/>
<path d="M4610 631 l0 -291 30 0 30 0 0 222 c0 122 3 219 6 215 3 -3 45 -101
94 -219 l88 -213 33 0 34 0 90 219 90 219 3 -221 2 -222 35 0 35 0 0 290 0
290 -44 0 -44 0 -34 -82 c-19 -46 -63 -154 -98 -240 -36 -87 -67 -158 -70
-158 -3 0 -48 107 -101 238 l-97 237 -41 3 -41 3 0 -290z"/>
<path d="M5475 908 c-2 -7 -49 -136 -105 -286 -55 -151 -100 -276 -100 -279 0
-2 16 -3 36 -1 36 3 37 4 66 86 l30 83 116 -3 117 -3 29 -82 c29 -81 31 -83
63 -83 18 0 33 3 33 8 0 4 -46 134 -102 289 l-103 283 -38 0 c-21 0 -40 -5
-42 -12z m90 -203 c21 -60 40 -116 43 -122 3 -10 -19 -13 -90 -13 l-95 0 46
130 c25 71 48 126 52 122 3 -4 23 -56 44 -117z"/>
<path d="M5860 630 l0 -290 35 0 35 0 0 115 0 115 69 0 70 0 63 -115 63 -115
37 0 c21 0 38 2 38 5 0 2 -28 54 -61 115 l-62 111 41 35 c49 41 66 88 60 161
-6 66 -29 100 -88 131 -39 19 -59 22 -172 22 l-128 0 0 -290z m291 192 c23
-26 29 -42 29 -78 0 -25 -5 -54 -11 -66 -17 -32 -71 -48 -159 -48 l-80 0 0
116 0 116 96 -4 c94 -3 96 -4 125 -36z"/>
<path d="M6370 630 l0 -290 35 0 35 0 0 93 c0 93 0 94 36 136 l36 42 101 -136
102 -135 43 0 43 0 -97 128 c-54 70 -108 140 -121 156 -13 16 -23 32 -21 37 2
4 56 64 121 133 l119 126 -49 0 -48 -1 -130 -145 -130 -144 -3 145 -3 145 -34
0 -35 0 0 -290z"/>
</g>
</svg>
